<svg width="128" height="64" viewBox="0 0 128 64" fill="none" xmlns="http://www.w3.org/2000/svg">
<path d="M126.916 61.5977C126.895 61.0438 126.875 60.3728 126.875 59.7027H126.855C126.711 60.2907 126.52 60.9478 126.343 61.4887L125.783 63.2878H124.971L124.481 61.5087C124.331 60.9607 124.174 60.3046 124.065 59.7018H124.051C124.024 60.3248 124.003 61.0356 123.969 61.6107L123.887 63.3627H122.925L123.219 58.7506H124.604L125.054 60.2897C125.197 60.8168 125.34 61.3997 125.442 61.9397H125.462C125.593 61.4067 125.749 60.7978 125.9 60.2837L126.391 58.7518H127.748L128 63.3627H126.983L126.916 61.5977ZM120.207 59.6256H118.973V58.7497L122.506 58.7506V59.6266L121.251 59.6256L121.25 63.3618H120.207V59.6256ZM57.649 47.0856C55.7959 47.0847 54.2991 49.1926 54.2979 51.8108C54.2979 54.4287 55.794 56.5458 57.6471 56.5467C59.502 56.5467 60.997 54.4306 60.997 51.8117C60.9979 49.1948 59.504 47.0856 57.649 47.0856ZM61.3779 59.3528C60.0449 60.8307 58.0409 61.4547 56.293 61.4547C51.1709 61.4537 47.868 57.5578 47.869 51.9336C47.8709 46.2876 52.1059 42.1507 56.7891 42.1507C59.197 42.1517 60.858 43.5286 61.381 44.3386V42.6817L67.3819 42.6826L67.3779 60.9318L61.3769 60.9308L61.3779 59.3528ZM106.281 46.4926C107.983 46.4926 109.345 47.8807 109.533 49.7638L102.742 49.7626C103.144 47.7387 104.472 46.4926 106.281 46.4926ZM96.4731 51.7387C96.4719 57.6437 100.38 61.4446 106.422 61.4458C111.104 61.4468 114.487 59.1807 115.463 55.3786L115.533 55.1386L109.688 55.1376L109.637 55.2586C109.165 56.3926 107.959 57.1057 106.486 57.1047C104.288 57.1047 102.877 55.7288 102.714 53.4318L115.771 53.4346V53.2356C115.794 53.0007 115.799 52.7598 115.799 52.5166C115.799 49.3777 114.839 46.6647 113.098 44.8186C111.424 43.0836 109.071 42.1536 106.282 42.1536C100.782 42.1527 96.474 46.3647 96.4731 51.7387ZM89.178 60.9358L95.1449 60.9368L95.149 42.6876L89.1819 42.6867L89.18 52.4587C89.179 55.6947 87.235 56.5268 85.921 56.5268C84.037 56.5268 82.9829 55.6937 82.9839 53.2637L82.9861 42.6857L77.0249 42.6848L77.022 53.6528C77.0208 58.4278 78.95 61.4588 84.176 61.4607C86.2801 61.4607 88.063 60.6788 89.178 58.8128V60.9358ZM69.253 60.9318L75.2148 60.9336L75.2199 36.0007L69.258 35.9998L69.253 60.9318ZM27.307 38.0797L34.4789 60.9248L42.8379 60.9267L50.2191 38.0847L43.2711 38.0837L38.756 54.6248L34.2869 38.0818L27.307 38.0797ZM56.035 21.4207L65.964 21.4227C65.7771 18.2686 64.009 16.4136 61.1151 16.4117C56.953 16.4117 56.1509 19.5787 56.035 21.4207ZM85.5301 16.7998C81.5571 16.7998 80.1389 20.5776 80.138 23.8198C80.137 27.0406 81.554 30.7836 85.5269 30.7846C89.9379 30.7858 90.416 25.9138 90.4169 23.8217C90.4169 20.4387 89.143 16.8008 85.5301 16.7998ZM115.579 36.4277L115.323 36.5926C115.202 36.6756 113.937 37.3777 110.356 37.3767C105.65 37.3757 102.611 34.3006 102.612 29.5328L102.614 16.4218L98.3271 16.4206L98.323 36.7176L90.414 36.7157V34.5046C89.1531 35.8978 87.0279 37.3647 83.714 37.3637C79.394 37.3627 73.9639 34.5987 72.727 26.7876L56.034 26.7848C56.256 29.5587 58.2879 31.1917 61.537 31.1917C63.3579 31.1926 64.35 30.4887 65.2791 29.4327L65.4449 29.2577L72.553 29.2586L72.314 29.9556C70.71 34.8106 66.901 37.3678 61.3059 37.3666C53.4411 37.3647 48.175 31.9186 48.1769 23.8126C48.1769 21.6178 48.624 19.4938 49.4719 17.6206H49.4419C46.3159 17.6206 42.6689 19.7957 42.667 25.9148L42.6651 36.7056L34.4369 36.7037L34.4429 10.8876L42.6711 10.8886L42.6699 14.5726C44.312 12.0187 47.108 10.2127 49.776 10.2137C50.3079 10.2137 50.9391 10.3236 51.4239 10.4866L51.7939 10.6087L51.793 14.1658C54.1791 11.6086 57.5079 10.2147 61.3119 10.2156C67.081 10.2166 71.406 13.5797 73.07 19.1376C74.6909 13.0006 79.375 10.2197 83.72 10.2207C87.1191 10.2216 89.2049 11.6818 90.4191 13.0918V10.8986L102.616 10.8996L102.617 3.5266L110.55 3.52871L110.549 10.9318L115.56 10.9327L115.559 16.4247L110.547 16.4227L110.545 27.5847C110.545 30.3778 111.272 30.9118 112.598 30.9118C113.895 30.9118 114.894 30.6317 114.894 30.6317L115.58 30.4356L115.579 36.4277ZM17.333 17.1526L32.7051 17.1557L32.7019 36.7037L27.0259 36.7028L26.9151 36.3267C26.9151 36.3267 26.4199 34.7777 26.088 33.7337C23.143 36.8386 19.711 37.5166 17.2899 37.5166C7.11097 37.5137 -0.00311898 29.9878 1.02584e-06 19.2166C0.00192103 8.11373 6.94799 0.635776 17.298 0.637696C24.4898 0.639616 30.336 4.92268 31.855 11.3016L32.017 11.9458L23.532 11.9446L23.3729 11.6446C22.259 9.3046 20.0969 8.02368 17.2958 8.02368C9.18191 8.02176 8.56105 16.5907 8.56105 19.2187C8.55985 24.4826 10.853 30.1176 17.292 30.1186C21.6458 30.1198 24.2318 27.9466 24.8078 23.8207L17.3309 23.8186L17.333 17.1526Z" fill="#7790A1"/>
</svg>
